<?xml version="1.0" standalone="no"?>
<!DOCTYPE svg PUBLIC "-//W3C//DTD SVG 20010904//EN"
 "http://www.w3.org/TR/2001/REC-SVG-20010904/DTD/svg10.dtd">
<svg version="1.0" xmlns="http://www.w3.org/2000/svg"
 width="1024.000000pt" height="1024.000000pt" viewBox="0 0 1024.000000 1024.000000"
 preserveAspectRatio="xMidYMid meet">

<g transform="translate(0.000000,1024.000000) scale(0.100000,-0.100000)"
fill="#000000" stroke="none">
<path d="M4550 8858 c-66 -45 -68 -54 -126 -399 -30 -178 -59 -336 -65 -351
-14 -35 -36 -48 -134 -82 -106 -37 -288 -113 -404 -170 -98 -47 -128 -54 -163
-35 -22 12 -269 189 -437 312 -57 43 -120 81 -140 87 -39 10 -101 0 -129 -21
-75 -58 -735 -726 -755 -766 -22 -41 -22 -105 -1 -146 9 -17 94 -135 189 -262
179 -240 205 -280 205 -316 0 -12 -32 -91 -71 -176 -72 -159 -122 -284 -154
-385 -32 -105 -27 -102 -402 -165 -187 -31 -343 -62 -363 -72 -40 -20 -75 -67
-90 -120 -6 -22 -10 -229 -10 -527 0 -551 2 -567 65 -623 44 -38 49 -39 400
-101 160 -28 305 -59 323 -67 38 -18 51 -41 93 -161 40 -112 95 -243 159 -372
27 -57 50 -116 50 -131 0 -28 -70 -131 -276 -401 -56 -73 -108 -147 -118 -165
-21 -43 -20 -95 3 -141 25 -48 737 -758 774 -772 43 -15 119 -12 154 8 18 9
79 51 135 93 57 42 168 124 246 183 165 122 175 125 275 75 108 -55 217 -100
366 -150 79 -27 154 -55 167 -64 44 -29 53 -59 105 -374 51 -311 67 -360 137
-403 l37 -23 503 -3 c339 -2 515 1 543 8 57 16 113 75 128 136 7 27 32 163 57
303 53 304 57 321 87 350 14 12 92 45 183 75 87 30 218 81 291 115 72 34 146
61 163 61 46 0 73 -17 312 -196 274 -206 270 -204 339 -204 45 0 64 6 100 29
70 47 736 722 754 764 32 77 14 118 -136 313 -151 195 -269 365 -269 388 0 12
18 60 41 107 71 145 119 258 159 376 47 136 68 169 118 183 20 6 172 35 338
64 165 30 318 62 338 71 21 10 50 36 64 58 l27 41 3 535 c3 595 3 597 -61 645
-40 31 -25 27 -398 90 -331 55 -354 62 -379 116 -7 14 -30 77 -52 140 -22 63
-69 180 -105 260 -84 185 -91 206 -85 238 3 14 91 141 197 281 105 141 197
267 204 280 23 42 8 105 -37 163 -23 29 -198 209 -389 400 -380 378 -381 379
-468 357 -27 -7 -100 -54 -211 -135 -298 -221 -361 -264 -392 -270 -25 -5 -60
7 -183 66 -83 39 -208 92 -277 116 -173 61 -202 75 -218 99 -8 12 -39 169 -69
350 -59 358 -65 374 -136 414 -36 20 -51 21 -566 21 l-530 0 -33 -22z m-1087
-1659 c53 -27 293 -190 412 -279 120 -90 267 -214 368 -309 45 -43 91 -83 102
-88 15 -8 50 -3 140 18 249 60 366 74 645 74 196 0 281 -4 370 -18 94 -15 304
-60 382 -83 12 -4 48 24 115 87 184 173 416 356 677 533 153 104 203 109 248
24 22 -41 23 -52 23 -278 -1 -306 -32 -557 -116 -949 -65 -304 -62 -279 -39
-373 41 -163 148 -400 252 -562 l37 -58 -26 -52 c-69 -137 -202 -312 -345
-453 -119 -118 -170 -158 -413 -325 -350 -240 -455 -353 -603 -643 -63 -123
-130 -200 -225 -259 -200 -125 -417 -136 -626 -34 -126 62 -210 151 -286 299
-153 302 -281 436 -640 671 -320 209 -484 364 -648 613 -32 50 -70 111 -82
136 l-24 46 30 44 c130 194 283 556 281 668 -1 20 -22 131 -46 248 -84 390
-122 670 -133 968 -7 212 3 283 47 327 34 34 66 36 123 7z"/>
<path d="M3805 5353 c2 -10 9 -47 15 -83 17 -92 66 -243 107 -325 88 -174 175
-241 441 -339 133 -49 227 -94 292 -140 79 -56 74 -59 66 35 -31 383 -261 634
-745 814 -64 23 -130 46 -148 50 -27 5 -31 4 -28 -12z"/>
<path d="M6285 5325 c-396 -145 -628 -339 -720 -602 -39 -112 -68 -303 -46
-303 4 0 26 14 47 31 57 46 139 84 329 156 262 98 343 163 431 348 49 104 100
267 110 354 8 76 11 75 -151 16z"/>
</g>
</svg>
