<?xml version="1.0" standalone="no"?>
<!DOCTYPE svg PUBLIC "-//W3C//DTD SVG 20010904//EN"
 "http://www.w3.org/TR/2001/REC-SVG-20010904/DTD/svg10.dtd">
<svg version="1.0" xmlns="http://www.w3.org/2000/svg"
 width="1024.000000pt" height="1024.000000pt" viewBox="0 0 1024.000000 1024.000000"
 preserveAspectRatio="xMidYMid meet">

<g transform="translate(0.000000,1024.000000) scale(0.100000,-0.100000)"
fill="#000000" stroke="none">
<path d="M2161 6466 c-7 -8 -23 -79 -37 -157 -13 -79 -29 -146 -36 -150 -7 -5
-46 -20 -86 -34 -41 -15 -103 -42 -138 -61 -35 -19 -71 -34 -81 -34 -10 0 -67
41 -127 90 -60 50 -118 90 -129 90 -24 0 -357 -326 -357 -350 0 -8 13 -31 29
-50 75 -92 141 -187 141 -204 0 -10 -13 -42 -30 -70 -16 -29 -46 -95 -66 -147
-20 -52 -38 -96 -40 -98 -6 -6 -184 -30 -225 -31 -20 0 -46 -8 -58 -17 -20
-17 -21 -28 -22 -251 -1 -143 2 -237 8 -243 12 -12 124 -35 215 -44 37 -4 71
-12 77 -19 5 -6 22 -45 37 -86 14 -41 42 -105 60 -142 19 -37 34 -75 34 -84 0
-19 -23 -53 -107 -157 -35 -43 -63 -85 -63 -95 0 -21 318 -337 349 -347 24 -7
31 -3 170 102 85 65 91 66 141 33 26 -17 141 -67 223 -95 26 -9 47 -20 47 -23
0 -4 9 -65 20 -137 16 -105 24 -133 41 -147 19 -16 46 -18 243 -18 121 0 227
4 234 9 9 5 22 59 34 137 11 71 23 136 27 144 5 8 54 31 109 52 56 20 127 50
159 67 80 44 65 49 216 -66 31 -24 58 -47 62 -53 3 -5 20 -10 38 -10 28 0 52
21 194 162 90 90 163 168 163 173 0 11 -22 44 -117 171 -29 40 -53 78 -53 85
0 8 20 53 44 101 24 48 52 114 61 147 12 39 25 63 39 69 12 6 67 15 124 22
136 15 158 23 166 62 9 43 7 431 -2 444 -15 22 -50 33 -167 49 -65 9 -122 18
-125 20 -4 3 -17 34 -29 70 -12 36 -42 108 -66 159 l-43 94 21 30 c12 16 52
68 90 115 37 47 67 93 67 103 0 26 -329 354 -355 354 -11 0 -69 -39 -129 -85
-59 -47 -115 -85 -122 -85 -8 0 -45 15 -82 34 -37 18 -99 45 -138 60 -39 15
-79 32 -88 39 -11 8 -22 42 -31 97 -26 150 -36 190 -51 205 -22 22 -465 22
-483 1z m-328 -802 c29 -15 108 -65 177 -112 138 -95 127 -92 283 -72 70 8
116 7 233 -5 l146 -16 37 25 c203 144 295 196 344 196 45 0 52 -22 52 -169 0
-75 -6 -197 -14 -271 l-14 -136 56 -139 c70 -177 75 -201 49 -252 -32 -62
-152 -167 -306 -267 -155 -102 -215 -155 -268 -237 -19 -30 -44 -62 -56 -72
-68 -61 -237 -61 -304 0 -11 10 -41 49 -66 86 -56 84 -91 114 -256 225 -137
92 -261 200 -297 258 -31 51 -22 107 42 254 62 144 62 142 40 404 -25 315 -6
364 122 300z"/>
<path d="M1910 4898 c0 -39 45 -121 83 -155 50 -44 135 -81 202 -89 50 -6 55
-5 55 12 -1 29 -35 96 -65 128 -42 43 -113 85 -184 106 -81 25 -91 25 -91 -2z"/>
<path d="M2790 4891 c-62 -24 -118 -61 -163 -109 -38 -38 -71 -108 -60 -126 8
-13 91 0 154 23 72 27 133 88 159 158 11 30 20 58 20 63 0 16 -61 11 -110 -9z"/>
<path d="M4985 5541 c-65 -19 -116 -43 -154 -72 -35 -28 -41 -24 -41 26 l0 45
-154 0 c-131 0 -155 -2 -160 -16 -3 -9 -6 -287 -6 -619 0 -473 3 -604 13 -608
6 -2 78 -5 158 -6 l146 -2 7 32 c3 17 6 210 6 428 0 424 0 419 50 458 119 93
309 86 374 -14 43 -66 47 -126 40 -530 l-7 -373 166 0 167 0 0 408 c0 375 2
410 19 448 32 70 102 111 206 121 124 11 212 -44 234 -147 7 -32 11 -196 11
-440 l0 -388 93 -5 c146 -7 181 -8 205 -2 l22 5 0 448 c-1 462 -4 501 -44 596
-37 89 -106 148 -224 193 -58 22 -83 26 -182 26 -97 0 -124 -3 -175 -23 -68
-26 -133 -67 -185 -116 l-36 -34 -48 50 c-55 57 -146 105 -225 120 -80 15
-208 11 -276 -9z"/>
<path d="M7106 5549 c-147 -19 -274 -84 -367 -188 -55 -62 -119 -185 -140
-271 -20 -80 -17 -308 4 -390 83 -313 382 -496 753 -460 118 11 141 18 237 64
84 40 127 71 127 92 0 13 -66 150 -88 182 -7 11 -19 9 -59 -11 -84 -43 -160
-60 -268 -61 -155 0 -273 46 -329 131 -27 41 -59 149 -49 166 4 7 141 8 420 3
311 -5 418 -4 429 5 10 8 14 38 14 117 0 98 -4 124 -33 227 -30 106 -119 235
-212 305 -91 70 -283 108 -439 89z m187 -259 c94 -35 151 -112 164 -220 l6
-50 -268 0 -268 0 6 44 c26 184 192 289 360 226z"/>
<path d="M8315 5539 c-121 -23 -234 -78 -283 -138 -99 -123 -105 -341 -11
-454 62 -76 136 -111 354 -172 153 -42 165 -47 209 -85 32 -28 36 -38 36 -79
0 -89 -49 -121 -182 -121 -133 0 -281 42 -371 103 -15 10 -33 17 -40 14 -7 -3
-30 -55 -51 -117 -46 -131 -50 -119 69 -175 67 -32 128 -50 245 -75 61 -13
219 -8 290 8 25 6 59 14 75 18 17 4 41 14 55 24 14 9 40 22 58 30 45 18 125
108 120 135 -3 12 1 26 8 33 17 16 28 111 21 197 -7 89 -35 151 -94 205 -57
53 -118 80 -283 125 -195 53 -243 79 -270 149 -16 44 10 93 63 117 84 38 268
15 410 -50 26 -12 56 -20 65 -16 18 5 72 150 72 192 0 90 -350 171 -565 132z"/>
</g>
</svg>
